<?xml version="1.0" encoding="UTF-8" standalone="no"?>
<!-- Created with Inkscape (http://www.inkscape.org/) -->

<svg
   width="16mm"
   height="16mm"
   viewBox="0 0 16 16"
   version="1.1"
   id="svg5"
   xml:space="preserve"
   inkscape:version="1.2.2 (b0a8486541, 2022-12-01)"
   sodipodi:docname="icon.svg"
   xmlns:inkscape="http://www.inkscape.org/namespaces/inkscape"
   xmlns:sodipodi="http://sodipodi.sourceforge.net/DTD/sodipodi-0.dtd"
   xmlns="http://www.w3.org/2000/svg"
   xmlns:svg="http://www.w3.org/2000/svg"><sodipodi:namedview
     id="namedview7"
     pagecolor="#505050"
     bordercolor="#eeeeee"
     borderopacity="1"
     inkscape:showpageshadow="0"
     inkscape:pageopacity="0"
     inkscape:pagecheckerboard="0"
     inkscape:deskcolor="#505050"
     inkscape:document-units="mm"
     showgrid="false"
     showguides="false"
     inkscape:zoom="5.306515"
     inkscape:cx="29.680497"
     inkscape:cy="75.002144"
     inkscape:window-width="1720"
     inkscape:window-height="1371"
     inkscape:window-x="0"
     inkscape:window-y="32"
     inkscape:window-maximized="0"
     inkscape:current-layer="layer1" /><defs
     id="defs2" /><g
     inkscape:label="Layer 1"
     inkscape:groupmode="layer"
     id="layer1"><path
       id="rect910"
       style="opacity:1;fill:#ffffff;fill-opacity:1;stroke:none;stroke-width:11.8895;stroke-linecap:round;stroke-linejoin:round;paint-order:stroke fill markers;stop-color:#000000"
       d="M 0,0 V 1.9998779 H 3.9997416 V 0 Z m 3.9997416,1.9998779 v 1.999878 1.0004557 H 1.9998708 v 0.999939 H 0 v 3.9997558 h 1.9998708 v 0.9999386 h 1.9998708 v 0.999939 2.000395 h 1.9998708 v -2.000395 h 1.9998709 v 2.000395 H 10.000388 V 11.999784 9.9999064 h 1.99987 v -0.999939 h 1.999871 v 0.999939 H 16 V 6.0001506 H 14.000129 V 7.0000895 H 12.000258 V 6.0001506 h -1.99987 V 3.9997559 1.9998779 H 7.9994833 v 1.999878 H 5.9996124 v -1.999878 z m 6.0006464,0 H 16 V 0 h -5.999612 z m 1.99987,4.0002727 h 1.999871 V 3.9997559 h -1.999871 z m 1.999871,3.9997558 h -1.999871 v 1.9998776 h 1.999871 z m -3.999741,4.0002726 v 1.999878 H 16 v -1.999878 z m -6.0006464,0 H 0 v 1.999878 h 3.9997416 z" /></g></svg>
